<svg xmlns="http://www.w3.org/2000/svg" xmlns:xlink="http://www.w3.org/1999/xlink" xmlns:serif="http://www.serif.com/" viewBox="0 0 32 40" version="1.1" xml:space="preserve" style="" x="0px" y="0px" fill-rule="evenodd" clip-rule="evenodd" stroke-linejoin="round" stroke-miterlimit="2"><g transform="matrix(1,0,0,1,-68.481,0.128)"><path d="M91.798,19.765C88.906,19.765 86.559,22.113 86.559,25.004C86.559,27.896 88.906,30.244 91.798,30.244C94.69,30.244 97.038,27.896 97.038,25.004C97.038,22.113 94.69,19.765 91.798,19.765ZM91.798,20.765C94.138,20.765 96.038,22.665 96.038,25.004C96.038,27.344 94.138,29.244 91.798,29.244C89.458,29.244 87.559,27.344 87.559,25.004C87.559,22.665 89.458,20.765 91.798,20.765ZM77.188,8.915L74.261,8.915C74.004,8.915 73.789,9.11 73.763,9.365L71.927,27.662C71.913,27.802 71.959,27.942 72.053,28.047C72.148,28.152 72.283,28.212 72.424,28.212L85.847,28.212C86.123,28.212 86.347,27.988 86.347,27.712C86.347,27.436 86.123,27.212 85.847,27.212L72.977,27.212C72.977,27.212 74.713,9.915 74.713,9.915L77.188,9.915L77.188,12.297C77.188,12.573 77.412,12.797 77.688,12.797C77.964,12.797 78.188,12.573 78.188,12.297L78.188,9.915L87.241,9.915L87.241,12.297C87.241,12.573 87.465,12.797 87.741,12.797C88.017,12.797 88.241,12.573 88.241,12.297L88.241,9.915L90.716,9.915C90.716,9.915 91.569,18.413 91.569,18.413C91.596,18.688 91.842,18.888 92.116,18.861C92.391,18.833 92.591,18.588 92.564,18.313L91.666,9.365C91.64,9.11 91.425,8.915 91.168,8.915L88.241,8.915L88.241,7.026C88.241,3.974 85.767,1.5 82.715,1.5C82.715,1.5 82.714,1.5 82.714,1.5C79.662,1.5 77.188,3.974 77.188,7.026L77.188,8.915ZM88.96,25.432L90.666,27.139C90.861,27.334 91.178,27.334 91.373,27.139L94.639,23.873C94.834,23.677 94.834,23.361 94.639,23.165C94.444,22.97 94.127,22.97 93.932,23.165L91.02,26.078C91.02,26.078 89.667,24.725 89.667,24.725C89.472,24.53 89.155,24.53 88.96,24.725C88.764,24.92 88.764,25.237 88.96,25.432ZM87.241,8.915L87.241,7.026C87.241,4.526 85.215,2.5 82.715,2.5C82.715,2.5 82.714,2.5 82.714,2.5C80.214,2.5 78.188,4.526 78.188,7.026L78.188,8.915L87.241,8.915Z"/></g><text x="0" y="47" fill="#000000" font-size="5px" font-weight="bold" font-family="'Helvetica Neue', Helvetica, Arial-Unicode, Arial, Sans-serif">Created by rendicon</text><text x="0" y="52" fill="#000000" font-size="5px" font-weight="bold" font-family="'Helvetica Neue', Helvetica, Arial-Unicode, Arial, Sans-serif">from the Noun Project</text></svg>